<?xml version="1.0" encoding="utf-8"?>
<!-- Generator: Adobe Illustrator 27.5.0, SVG Export Plug-In . SVG Version: 6.00 Build 0)  -->
<svg version="1.1" xmlns="http://www.w3.org/2000/svg" xmlns:xlink="http://www.w3.org/1999/xlink" x="0px" y="0px"
	 viewBox="0 0 500 500" style="enable-background:new 0 0 500 500;" xml:space="preserve">
<g id="BACKGROUND">
</g>
<g id="OBJECTS">
	<g>
		<g>
			<g>
				<linearGradient id="SVGID_1_" gradientUnits="userSpaceOnUse" x1="238.1328" y1="302.3743" x2="241.8043" y2="249.5971">
					<stop  offset="3.405400e-04" style="stop-color:#3167E3"/>
					<stop  offset="1" style="stop-color:#449BEC"/>
				</linearGradient>
				<path style="fill:url(#SVGID_1_);" d="M338.403,252.803c-2.478,6.132-5.526,11.97-9.069,17.459
					c-8.215,12.741-19.12,23.581-31.916,31.714c-6.637-0.441-13.264-1.111-19.855-2.029c-40.471-5.636-79.63-20.121-120.174-23.802
					c-1.863-2.478-3.607-5.058-5.232-7.711c-0.009,0-0.009,0-0.009,0c-2.845-4.617-5.352-9.482-7.463-14.549
					c4.039-2.084,8.225-3.837,12.64-4.929c12.686-3.158,23.352,0.477,32.008,9.95c7.38,8.069,14.696,13.457,26.115,13.42
					c7.986-0.018,15.779-2.387,23.315-5.039c23.223-8.197,46.961-14.512,71.552-17.101
					C319.044,249.269,329.747,249.186,338.403,252.803z"/>
				<path style="opacity:0.5;fill:#59AAEC;" d="M329.334,270.261c-8.215,12.741-19.12,23.581-31.916,31.714
					c-6.637-0.441-13.264-1.111-19.855-2.029c-40.471-5.636-79.63-20.121-120.174-23.802c-1.863-2.478-3.607-5.058-5.232-7.711
					C153.313,268.756,257.167,297.414,329.334,270.261z"/>
			</g>
			<g>
				
					<linearGradient id="SVGID_00000055686234476699528360000003787816378526171563_" gradientUnits="userSpaceOnUse" x1="221.9901" y1="324.0069" x2="227.0387" y2="291.4206">
					<stop  offset="3.405400e-04" style="stop-color:#3167E3"/>
					<stop  offset="1" style="stop-color:#449BEC"/>
				</linearGradient>
				<path style="fill:url(#SVGID_00000055686234476699528360000003787816378526171563_);" d="M157.387,276.149
					c19.087,25.565,49.578,42.117,83.936,42.117c20.64,0,39.882-5.976,56.097-16.288c-6.64-0.445-13.264-1.116-19.855-2.034
					C237.096,294.307,197.934,279.824,157.387,276.149z"/>
				<path style="opacity:0.5;fill:#59AAEC;" d="M264.978,315.588c-7.6,1.753-15.522,2.68-23.655,2.68
					c-24.068,0-46.245-8.124-63.924-21.782C206.773,301.186,235.614,310.108,264.978,315.588z"/>
			</g>
			
				<linearGradient id="SVGID_00000106858721426833615500000009161224509711898788_" gradientUnits="userSpaceOnUse" x1="258.7473" y1="151.7667" x2="210.0974" y2="324.3363">
				<stop  offset="3.205100e-04" style="stop-color:#FFEE26"/>
				<stop  offset="0.0147" style="stop-color:#FFEC27"/>
				<stop  offset="0.339" style="stop-color:#FFBA34"/>
				<stop  offset="0.6228" style="stop-color:#FF953D"/>
				<stop  offset="0.8527" style="stop-color:#FF7F43"/>
				<stop  offset="0.9997" style="stop-color:#FF7745"/>
			</linearGradient>
			<path style="fill:url(#SVGID_00000106858721426833615500000009161224509711898788_);" d="M189.33,258.906
				c7.378,8.069,14.701,13.456,26.118,13.423c7.989-0.023,15.776-2.386,23.31-5.043c23.232-8.194,46.967-14.506,71.555-17.097
				c8.731-0.92,19.437-1.004,28.094,2.61c4.897-12.113,7.6-25.347,7.6-39.215c0-44.582-27.872-82.648-67.138-97.742
				c23.892,10.317,40.619,34.082,40.619,61.761c0,37.142-30.11,67.252-67.252,67.252s-67.252-30.11-67.252-67.252
				s30.11-67.252,67.252-67.252c4.261,0,8.423,0.414,12.465,1.172c-7.517-1.715-15.341-2.623-23.377-2.623
				c-57.815,0-104.684,46.868-104.684,104.684c0,14.283,2.865,27.896,8.044,40.301c4.043-2.084,8.23-3.832,12.641-4.929
				C170.012,245.8,180.673,249.436,189.33,258.906z"/>
			<path style="opacity:0.3;fill:#FF6645;" d="M342.864,239.098c-1.175,4.7-2.671,9.28-4.461,13.705
				c-8.656-3.617-19.359-3.534-28.088-2.616c-24.591,2.589-48.328,8.904-71.552,17.101c-7.536,2.653-15.329,5.021-23.315,5.039
				c-11.419,0.037-18.735-5.351-26.115-13.42c-8.656-9.473-19.322-13.108-32.008-9.95c-4.415,1.092-8.601,2.846-12.64,4.929
				c-1.781-4.268-3.286-8.684-4.489-13.218c2.469-0.982,4.993-1.817,7.582-2.46c14.953-3.718,27.51,0.569,37.708,11.722
				c8.693,9.51,17.321,15.862,30.778,15.816c9.409-0.027,18.588-2.809,27.464-5.939c27.372-9.657,55.341-17.092,84.311-20.148
				C332.656,239.171,337.742,238.887,342.864,239.098z"/>
			<path style="fill:#FFFFFF;" d="M157.387,276.149c5.93,0.388,11.85,1.004,17.743,1.818c2.945,0.42,5.887,0.869,8.814,1.394
				c2.936,0.483,5.859,1.037,8.779,1.6c11.684,2.26,23.232,5.116,34.796,7.819c11.532,2.846,23.085,5.557,34.709,7.911
				c11.624,2.35,23.358,4.144,35.191,5.286c-5.941-0.191-11.872-0.678-17.79-1.301c-2.958-0.327-5.897-0.792-8.848-1.181
				c-2.943-0.438-5.877-0.935-8.814-1.416c-11.723-2.076-23.307-4.809-34.876-7.516l-17.306-4.232
				c-5.772-1.383-11.56-2.691-17.347-3.993c-2.895-0.644-5.793-1.278-8.705-1.842c-1.455-0.286-2.906-0.597-4.365-0.862
				l-4.379-0.784c-2.911-0.582-5.849-0.988-8.778-1.477c-1.463-0.257-2.939-0.409-4.41-0.614L157.387,276.149z"/>
			<path style="fill:#FFFFFF;" d="M338.406,252.798c-4.002-1.546-8.247-2.303-12.492-2.64c-4.255-0.32-8.532-0.172-12.775,0.222
				c-8.494,0.849-16.95,2.222-25.318,3.926c-16.742,3.441-33.174,8.257-49.274,14.024c-4.06,1.41-8.186,2.715-12.431,3.627
				c-4.242,0.907-8.607,1.403-12.994,1.133c-4.381-0.289-8.737-1.53-12.564-3.704c-3.834-2.169-7.126-5.1-10.086-8.237l-2.191-2.358
				l-1.088-1.148l-1.148-1.085c-1.554-1.417-3.2-2.746-4.994-3.843c-3.543-2.261-7.593-3.723-11.779-4.224
				c-2.09-0.256-4.216-0.332-6.328-0.139c-1.061,0.043-2.106,0.245-3.161,0.373c-1.04,0.216-2.091,0.388-3.123,0.653
				c-4.135,1.038-8.127,2.633-11.977,4.506c3.759-2.049,7.703-3.808,11.851-4.976c1.034-0.301,2.093-0.51,3.141-0.763
				c1.066-0.165,2.123-0.404,3.203-0.483c2.148-0.266,4.329-0.26,6.492-0.066c2.169,0.181,4.304,0.69,6.37,1.375
				c2.075,0.673,4.05,1.635,5.917,2.755c1.884,1.102,3.614,2.443,5.249,3.876l1.208,1.098l1.145,1.161l2.227,2.305
				c2.977,3.017,6.205,5.784,9.845,7.833c3.646,2.036,7.731,3.171,11.895,3.422c4.172,0.23,8.397-0.27,12.516-1.18
				c4.128-0.913,8.176-2.225,12.197-3.643c16.196-5.638,32.722-10.511,49.609-13.673c8.449-1.545,16.948-2.769,25.518-3.438
				c4.292-0.261,8.611-0.271,12.889,0.188C330.228,250.135,334.478,251.069,338.406,252.798z"/>
			<g>
				<g>
					<g>
						<path style="fill:#FFFFFF;" d="M242.287,190.448l-21.874,10.125l-2.91,1.349l-0.257,0.11l-38.268,17.716
							c-0.174-0.174-0.349-0.34-0.532-0.505c-0.578-0.523-1.175-1.001-1.808-1.441c-2.515-1.781-5.48-2.965-8.684-3.351
							c-0.762-0.101-1.542-0.147-2.332-0.147c-0.835,0-1.661,0.073-2.469,0.184c0-0.147,0.009-0.294,0.018-0.441
							c0-0.156,0.009-0.312,0.009-0.468c0-0.138,0-0.285-0.009-0.422l49.1-16.513l0.11-0.037l4.709-1.588l23.829-8.014l0.679,1.698
							l0.294,0.743l0.294,0.734L242.287,190.448z"/>
						<path style="fill:#BCE3F5;" d="M226.223,194.854l-6.389,2.956l-0.945,0.441h-0.009l-42.243,19.552
							c-2.515-1.781-5.48-2.965-8.684-3.351l50.495-16.981h0.009L226.223,194.854z"/>
					</g>
					<path style="fill:#9E46E0;" d="M163.171,214.048c0-0.156,0.009-0.312,0.009-0.468c0-0.138,0-0.285-0.009-0.422
						c0-0.294-0.009-0.578-0.027-0.863v-0.009l49.127-15.641L163.171,214.048z"/>
					<path style="fill:#9E46E0;" d="M217.503,201.922l-38.02,18.331c-0.165-0.174-0.33-0.349-0.505-0.505
						c-0.174-0.174-0.349-0.34-0.532-0.505l38.801-17.211L217.503,201.922z"/>
				</g>
				<path style="fill:#FFFFFF;" d="M173.627,250.82c0.431,1.193,0.688,2.478,0.688,3.819c0,6.15-4.984,11.134-11.134,11.134
					c-4.553,0-8.463-2.735-10.189-6.655c-1.459,0.991-3.057,1.79-4.764,2.359c-0.073-0.129-0.147-0.266-0.211-0.404
					c-0.028,0.018-0.046,0.037-0.073,0.055c0.018-0.037,0.037-0.064,0.055-0.101c-1.202-2.332-2.304-4.709-3.314-7.141
					c-2.451-5.875-4.379-12.016-5.737-18.377c-0.532-2.478-0.973-4.984-1.313-7.527c-0.202-1.377-0.358-2.763-0.486-4.158
					c-0.037-0.303-0.064-0.606-0.083-0.909c-0.285-3.075-0.422-6.187-0.422-9.335c0-8.592,1.037-16.936,2.992-24.922
					c2.533,0.138,4.957,0.661,7.233,1.496c0.009,0.009,0.028,0.009,0.037,0.018c9.115,3.387,15.724,11.942,16.238,22.113
					c0.018,0.285,0.027,0.578,0.027,0.872c0.009,0.138,0.009,0.285,0.009,0.422c0,0.156-0.009,0.312-0.009,0.468
					c-0.009,0.147-0.018,0.294-0.018,0.441c0.027,0,0.055-0.009,0.083-0.009c0.376-0.055,0.753-0.092,1.138-0.119
					c0.184-0.018,0.358-0.028,0.532-0.037c0.239-0.009,0.477-0.018,0.716-0.018c0.331,0,0.652,0.009,0.973,0.028
					c0.009,0,0.018,0,0.018,0c0.257,0.009,0.514,0.028,0.762,0.055c0.193,0.018,0.385,0.037,0.578,0.064
					c0.027,0,0.055,0,0.083,0.009c0.376,0.046,0.743,0.101,1.111,0.174c0.193,0.037,0.395,0.073,0.587,0.119
					c0.294,0.055,0.587,0.128,0.881,0.22c0.184,0.037,0.358,0.092,0.542,0.147c0.101,0.027,0.202,0.055,0.294,0.092
					c0.184,0.064,0.367,0.119,0.551,0.193c0.184,0.064,0.367,0.129,0.551,0.202c0.312,0.119,0.615,0.248,0.918,0.385
					c0.092,0.028,0.174,0.074,0.257,0.119c0.321,0.147,0.633,0.303,0.945,0.468c0.018,0.009,0.046,0.028,0.073,0.037
					c0.312,0.174,0.624,0.358,0.927,0.542c0.321,0.202,0.633,0.404,0.936,0.624c0.009,0,0.018,0.009,0.028,0.018
					c0.027,0.009,0.046,0.027,0.073,0.055c0.193,0.128,0.376,0.266,0.551,0.413c0.165,0.11,0.331,0.239,0.486,0.376
					c0.239,0.193,0.468,0.385,0.698,0.597c0.184,0.156,0.358,0.33,0.532,0.505c0.174,0.156,0.34,0.331,0.505,0.505
					c3.268,3.433,5.278,8.078,5.278,13.191C184.761,241.154,180.19,247.781,173.627,250.82z"/>
				<g>
					<path style="fill:#BCE3F5;" d="M157.389,220.014c-2.386,0-4.65,0.532-6.683,1.481c2.478-3.101,5.89-5.419,9.831-6.502
						c-0.973-5.03-5.397-8.821-10.703-8.821c-6.022,0-10.905,4.883-10.905,10.905c0,2.111,0.597,4.085,1.643,5.755
						c0.432-0.027,0.872-0.046,1.313-0.046c2.485,0,4.861,0.458,7.053,1.292c7.491,2.842,12.811,10.09,12.811,18.572
						c0,0.321-0.009,0.642-0.028,0.955c0.477-0.064,0.964-0.101,1.46-0.101c2.478,0,4.755,0.808,6.609,2.166
						c2.148-2.708,3.424-6.113,3.424-9.831C173.214,227.101,166.127,220.014,157.389,220.014z"/>
					<path style="fill:#BCE3F5;" d="M168.128,248.958c0.455,2.553-1.003,5.124-3.533,6.001c-2.063,0.715-4.267,0.097-5.668-1.399
						c0.038,0.286,0.11,0.561,0.207,0.842c0.972,2.804,4.035,4.284,6.838,3.312c2.804-0.972,4.293-4.03,3.321-6.834
						C169.037,250.141,168.637,249.496,168.128,248.958z"/>
					<path style="fill:#BCE3F5;" d="M155.957,246.093c0,6.223-3.148,11.731-7.94,14.98c-0.028,0.018-0.046,0.037-0.073,0.055
						c0.018-0.037,0.037-0.064,0.055-0.101c1.432-2.579,2.249-5.563,2.249-8.739c0-7.591-4.672-14.09-11.3-16.78
						c-0.532-2.478-0.973-4.984-1.313-7.527h0.211C147.842,227.982,155.957,236.096,155.957,246.093z"/>
				</g>
				<g>
					<path style="fill:#9E46E0;" d="M146.867,190.156c2.626,0.568,5.135,1.755,7.348,3.357c2.227,1.593,4.137,3.633,5.658,5.927
						c1.494,2.311,2.597,4.882,3.155,7.564c0.579,2.674,0.617,5.447,0.106,8.079c-0.255-2.672-0.693-5.251-1.491-7.712
						c-0.8-2.453-1.891-4.793-3.306-6.926c-1.386-2.152-3.092-4.091-5.013-5.816C151.392,192.909,149.224,191.437,146.867,190.156z"
						/>
					<g>
						<path style="fill:#9E46E0;" d="M171.918,254.216c0.135,1.4-0.313,2.877-1.176,4.08c-0.861,1.205-2.12,2.167-3.559,2.646
							c-1.433,0.499-3.015,0.513-4.435,0.085c-1.42-0.423-2.68-1.32-3.422-2.517c1.255,0.622,2.485,0.997,3.711,1.114
							c1.224,0.111,2.433-0.041,3.553-0.419c1.123-0.379,2.164-1.003,3.069-1.839C170.56,256.521,171.299,255.475,171.918,254.216z"
							/>
						<path style="fill:#9E46E0;" d="M139.729,210.076c-0.891-1.466-1.078-3.402-0.534-5.151c0.523-1.756,1.759-3.336,3.4-4.251
							c1.627-0.942,3.61-1.214,5.392-0.773c1.785,0.422,3.351,1.578,4.159,3.092c-1.385-0.995-2.891-1.563-4.395-1.679
							c-1.504-0.117-2.986,0.239-4.246,0.953c-1.267,0.712-2.316,1.82-2.979,3.171C139.86,206.79,139.574,208.379,139.729,210.076z"
							/>
						<path style="fill:#9E46E0;" d="M161.923,243.587c-0.092,0.707-0.22,1.405-0.404,2.093c0.193-3.727-0.56-7.38-2.065-10.63
							c-0.799-1.606-1.762-3.112-2.91-4.47c-1.175-1.331-2.478-2.552-3.947-3.552c-2.928-2.001-6.38-3.231-9.959-3.488
							c-1.827-0.165-3.663-0.064-5.489,0.285c-0.037-0.303-0.064-0.606-0.083-0.909c1.028-0.321,2.093-0.542,3.167-0.67
							c0.009,0,0.009,0,0.009,0c0.817-0.101,1.634-0.147,2.46-0.128c1.928-0.064,3.846,0.34,5.71,0.863
							c1.863,0.569,3.589,1.487,5.223,2.534c1.588,1.129,3.011,2.469,4.25,3.956c1.166,1.551,2.185,3.213,2.882,5.012
							C161.877,237.391,162.309,240.557,161.923,243.587z"/>
						<path style="fill:#9E46E0;" d="M168.382,221.947c1.479,0.536,2.814,1.458,3.94,2.591c1.135,1.13,2.043,2.498,2.683,3.979
							c0.643,1.481,1.007,3.084,1.048,4.685c0.045,1.597-0.187,3.201-0.831,4.642c-0.112-1.566-0.297-3.043-0.592-4.477
							c-0.291-1.434-0.749-2.804-1.311-4.124c-0.573-1.315-1.252-2.592-2.093-3.79C170.391,224.25,169.436,223.114,168.382,221.947z
							"/>
					</g>
				</g>
			</g>
			<g>
				<g>
					
						<linearGradient id="SVGID_00000094619109617574523750000009457215715550487980_" gradientUnits="userSpaceOnUse" x1="276.0384" y1="205.6969" x2="326.999" y2="205.6969" gradientTransform="matrix(0.9904 -0.1384 0.1384 0.9904 -24.6423 36.8585)">
						<stop  offset="3.405400e-04" style="stop-color:#662D91"/>
						<stop  offset="0.9997" style="stop-color:#3A0D5C"/>
					</linearGradient>
					<path style="fill:url(#SVGID_00000094619109617574523750000009457215715550487980_);" d="M323.629,166.295l5.176,37.04
						c0.162,1.158-0.074,2.337-0.669,3.343l-11.712,19.815l-5.381-1.716l2.508-7.273c0.685-1.986,0.001-4.187-1.689-5.436
						l-37.127-27.436L323.629,166.295z"/>
					<path style="fill:#9E46E0;" d="M279.43,185.288c3.493-1.421,6.995-2.814,10.511-4.173l10.564-4.032l10.61-3.91
						c3.543-1.288,7.098-2.541,10.664-3.767c-3.492,1.421-6.995,2.815-10.511,4.174l-10.564,4.031l-10.611,3.909
						C286.551,182.809,282.995,184.062,279.43,185.288z"/>
					<path style="fill:#9E46E0;" d="M313.937,223.326l1.015-3.155c0.312-1.057,0.75-2.093,0.901-3.162
						c0.33-2.148-0.438-4.408-1.983-5.9c-0.769-0.725-1.733-1.32-2.604-1.991l-2.673-1.959l-5.345-3.918l-10.622-7.93
						c-3.531-2.657-7.04-5.343-10.531-8.053c3.616,2.542,7.214,5.107,10.79,7.703l10.699,7.826l5.315,3.96l2.658,1.98
						c0.875,0.678,1.797,1.266,2.621,2.077c1.604,1.624,2.35,4.025,1.948,6.249c-0.209,1.117-0.688,2.119-1.043,3.164
						L313.937,223.326z"/>
				</g>
				<g>
					
						<linearGradient id="SVGID_00000026139366099931462980000009463826991926515342_" gradientUnits="userSpaceOnUse" x1="205.9511" y1="170.9828" x2="369.2955" y2="170.9828" gradientTransform="matrix(0.9904 -0.1384 0.1384 0.9904 -24.6423 36.8585)">
						<stop  offset="3.405400e-04" style="stop-color:#662D91"/>
						<stop  offset="0.9997" style="stop-color:#3A0D5C"/>
					</linearGradient>
					<path style="fill:url(#SVGID_00000026139366099931462980000009463826991926515342_);" d="M363.057,143.245
						c-1.616-3.392-10.394-2.165-10.394-2.165c-10.062-14.779-50.882,7.872-50.882,7.872l-66.961,33.158l-15.081-10.78
						c-1.033-0.738-2.342-0.977-3.569-0.65l-11.512,3.068c-1.563,0.417-2.321,2.188-1.544,3.607l4.094,7.47l3.922-0.548
						l7.716,13.907l144.302-54.716C363.119,143.393,363.091,143.317,363.057,143.245z"/>
					
						<linearGradient id="SVGID_00000105395733250079275130000007045069947867608961_" gradientUnits="userSpaceOnUse" x1="294.2743" y1="177.3691" x2="296.2731" y2="186.5637" gradientTransform="matrix(0.9904 -0.1384 0.1384 0.9904 -24.6423 36.8585)">
						<stop  offset="0" style="stop-color:#F4EDF5"/>
						<stop  offset="1" style="stop-color:#BCE3F5"/>
					</linearGradient>
					<path style="fill:url(#SVGID_00000105395733250079275130000007045069947867608961_);" d="M218.846,198.184l0.441,0.795
						c2.188,3.943,6.928,5.696,11.154,4.123c23.703-8.823,97.442-36.33,112.187-42.532c17.249-7.255,21.846-13.654,20.519-17.103
						L218.846,198.184z"/>
				</g>
				<path style="fill:#9E46E0;" d="M322.462,174.293c0.529,3.041,1.031,6.086,1.495,9.136l1.346,9.156l1.217,9.175
					c0.08,0.779,0.22,1.501,0.25,2.327c-0.01,0.409-0.106,0.814-0.272,1.185c-0.179,0.376-0.397,0.679-0.596,1.014l-2.474,3.913
					l2.235-4.054c0.18-0.337,0.403-0.672,0.542-0.999c0.138-0.337,0.211-0.701,0.207-1.063c-0.049-0.714-0.22-1.511-0.323-2.262
					l-1.345-9.157l-1.215-9.175C323.139,180.428,322.786,177.362,322.462,174.293z"/>
				
					<linearGradient id="SVGID_00000007414679910769881500000004958173576126455215_" gradientUnits="userSpaceOnUse" x1="202.3473" y1="155.1369" x2="313.6065" y2="155.1369" gradientTransform="matrix(0.9904 -0.1384 0.1384 0.9904 -24.6423 36.8585)">
					<stop  offset="3.405400e-04" style="stop-color:#662D91"/>
					<stop  offset="0.9993" style="stop-color:#3A0D5C"/>
				</linearGradient>
				<path style="fill:url(#SVGID_00000007414679910769881500000004958173576126455215_);" d="M262.042,175.259l46.232-22.074
					l-80.984-16.155c-1.735-0.346-3.533-0.208-5.195,0.399l-26.988,9.862l7.289,5.836l17.052-3.118
					c3.227-0.59,6.557,0.133,9.249,2.009L262.042,175.259z"/>
				<path style="fill:#9E46E0;" d="M220.081,141.78l2.115-0.809l1.058-0.404l1.105-0.294c0.744-0.17,1.526-0.148,2.28-0.017
					l2.227,0.409l8.897,1.694l17.775,3.479l17.75,3.607c5.913,1.218,11.82,2.473,17.72,3.757c-5.941-1.078-11.877-2.186-17.805-3.33
					l-17.775-3.48l-17.75-3.608l-8.866-1.849c-1.479-0.268-2.945-0.829-4.43-0.526l-1.092,0.255l-1.07,0.371L220.081,141.78z"/>
				<path style="fill:#9E46E0;" d="M262.363,171.345c-4.629-3.1-9.243-6.224-13.835-9.378l-13.749-9.502l-3.421-2.399
					c-1.136-0.823-2.268-1.564-3.536-2.11c-2.506-1.117-5.313-1.511-8.041-1.205l-16.471,2.759c5.469-1.092,10.91-2.21,16.418-3.191
					c2.8-0.385,5.705,0.037,8.3,1.165c1.301,0.547,2.517,1.335,3.639,2.138l3.435,2.379l13.673,9.61
					C253.324,164.827,257.852,168.074,262.363,171.345z"/>
				
					<linearGradient id="SVGID_00000112626195597212339000000016160293782991484848_" gradientUnits="userSpaceOnUse" x1="347.4563" y1="153.2185" x2="341.5927" y2="162.547" gradientTransform="matrix(0.9904 -0.1384 0.1384 0.9904 -24.6423 36.8585)">
					<stop  offset="0" style="stop-color:#F4EDF5"/>
					<stop  offset="1" style="stop-color:#BCE3F5"/>
				</linearGradient>
				<path style="fill:url(#SVGID_00000112626195597212339000000016160293782991484848_);" d="M352.666,141.079l-15.202,5.506
					c-1.347,0.497-2.841,0.431-4.137-0.176l-6.221-2.901c0,0,13.993-2.629,21.944-5.66
					C350.494,138.618,351.717,139.681,352.666,141.079z"/>
				<g>
					<path style="fill:#9E46E0;" d="M262.042,175.259c3.808-1.933,7.628-3.84,11.465-5.714l11.53-5.578l11.586-5.46
						c3.869-1.805,7.754-3.577,11.652-5.322c-3.807,1.934-7.628,3.841-11.464,5.715l-11.53,5.577l-11.586,5.459
						C269.825,171.742,265.94,173.513,262.042,175.259z"/>
				</g>
				<path style="fill:#9E46E0;" d="M305.545,165.313l-86.16,33.823c-0.031-0.052-0.063-0.104-0.094-0.156l-0.442-0.794l-0.53-0.959
					L305.545,165.313z"/>
			</g>
		</g>
		<g>
			<text transform="matrix(1 0 0 1 116.8276 360.7466)"><tspan x="0" y="0" style="fill:#9E46E0; font-family:'Barlow-ExtraBold'; font-size:37.8551px;">Travel</tspan><tspan x="107.885" y="0" style="fill:#FFB226; font-family:'Barlow-ExtraBold'; font-size:37.8551px;">Company</tspan></text>
			
				<text transform="matrix(1 0 0 1 149.7173 386.6753)" style="fill:#76AECC; font-family:'Metropolis-Medium'; font-size:15.8078px;">SLOGAN COMPANY HERE</text>
		</g>
	</g>
</g>
</svg>
